<?xml version="1.0" encoding="utf-8"?>
<!-- Generator: Adobe Illustrator 21.0.0, SVG Export Plug-In . SVG Version: 6.00 Build 0)  -->
<svg version="1.1" id="Layer_1" xmlns="http://www.w3.org/2000/svg" xmlns:xlink="http://www.w3.org/1999/xlink" x="0px" y="0px"
	 viewBox="0 0 270 10" style="enable-background:new 0 0 270 10;" xml:space="preserve">
<style type="text/css">
	.st0{fill:#FFFFFF;}
</style>
<g>
	<g>
		<path class="st0" d="M123.3,9.4h-1V1.5h-2.8V0.6h6.6v0.9h-2.8L123.3,9.4L123.3,9.4L123.3,9.4L123.3,9.4z"/>
		<path class="st0" d="M146.2,5.9v3.6h-1V0.8h2.4c1.1,0,1.9,0.2,2.4,0.6c0.5,0.4,0.8,1,0.8,1.9c0,1.2-0.6,1.9-1.8,2.3l2.4,3.9h-1.2
			L148,5.9L146.2,5.9L146.2,5.9L146.2,5.9z M146.2,5h1.4c0.7,0,1.2-0.1,1.6-0.4c0.3-0.3,0.5-0.7,0.5-1.3c0-0.6-0.2-1-0.5-1.3
			c-0.3-0.3-0.9-0.4-1.6-0.4h-1.3L146.2,5L146.2,5L146.2,5L146.2,5z"/>
		<path class="st0" d="M170.3,5.7v3.6h-1V0.6h2.4c1.1,0,1.9,0.2,2.4,0.6c0.5,0.4,0.8,1,0.8,1.9c0,1.2-0.6,1.9-1.8,2.3l2.4,3.9h-1.2
			l-2.1-3.6L170.3,5.7L170.3,5.7L170.3,5.7L170.3,5.7z M170.3,4.9h1.4c0.7,0,1.2-0.1,1.6-0.4c0.3-0.3,0.5-0.7,0.5-1.3
			c0-0.6-0.2-1-0.5-1.3c-0.3-0.3-0.9-0.4-1.6-0.4h-1.3L170.3,4.9L170.3,4.9L170.3,4.9z"/>
		<path class="st0" d="M116.5,9.4V0.6h1v8.8L116.5,9.4L116.5,9.4z"/>
		<path class="st0" d="M166.4,9.4h-4.9V0.6h4.9v0.9h-3.9v2.8h3.6v0.9h-3.6v3.2h3.9V9.4z"/>
		<path class="st0" d="M194.4,9.4l-1.1-2.8h-3.5l-1.1,2.8h-1l3.5-8.8h0.9l3.4,8.8H194.4z M193,5.7L192,3c-0.1-0.3-0.3-0.8-0.4-1.3
			c-0.1,0.4-0.2,0.8-0.4,1.3l-1,2.7H193z"/>
		<path class="st0" d="M202.5,3.2c0,0.9-0.3,1.6-0.9,2c-0.6,0.5-1.5,0.7-2.6,0.7h-1v3.4h-1V0.6h2.3C201.4,0.6,202.5,1.5,202.5,3.2z
			 M197.9,5.1h0.9c0.9,0,1.6-0.1,2-0.4c0.4-0.3,0.6-0.8,0.6-1.4c0-0.6-0.2-1-0.6-1.3c-0.4-0.3-1-0.4-1.8-0.4h-1.1V5.1L197.9,5.1z"/>
		<path class="st0" d="M159,3.3c0,0.9-0.3,1.6-0.9,2c-0.6,0.5-1.5,0.7-2.6,0.7h-1v3.4h-1V0.8h2.3C157.9,0.8,159,1.6,159,3.3z
			 M154.4,5.2h0.9c0.9,0,1.6-0.1,2-0.4c0.4-0.3,0.6-0.8,0.6-1.4c0-0.6-0.2-1-0.6-1.3c-0.4-0.3-1-0.4-1.8-0.4h-1.1L154.4,5.2
			L154.4,5.2z"/>
		<path class="st0" d="M210.1,3.2c0,0.9-0.3,1.6-0.9,2c-0.6,0.5-1.5,0.7-2.6,0.7h-1v3.4h-1V0.6h2.3C209,0.6,210.1,1.5,210.1,3.2z
			 M205.6,5.1h0.9c0.9,0,1.6-0.1,2-0.4c0.4-0.3,0.6-0.8,0.6-1.4c0-0.6-0.2-1-0.6-1.3c-0.4-0.3-1-0.4-1.8-0.4h-1.1L205.6,5.1
			L205.6,5.1z"/>
		<path class="st0" d="M212.2,9.4V0.6h1v7.8h3.9v0.9L212.2,9.4L212.2,9.4L212.2,9.4z"/>
		<path class="st0" d="M218.8,9.4V0.6h1v8.8L218.8,9.4L218.8,9.4z"/>
		<path class="st0" d="M226.2,1.4c-1,0-1.7,0.3-2.3,1c-0.6,0.6-0.8,1.5-0.8,2.6c0,1.1,0.3,2,0.8,2.7c0.5,0.6,1.3,0.9,2.3,0.9
			c0.6,0,1.3-0.1,2.1-0.3v0.9c-0.6,0.2-1.4,0.3-2.2,0.3c-1.3,0-2.3-0.4-3-1.2C222.4,7.6,222,6.4,222,5c0-0.9,0.2-1.7,0.5-2.4
			c0.3-0.7,0.8-1.2,1.5-1.6s1.4-0.6,2.2-0.6c0.9,0,1.7,0.2,2.4,0.5l-0.4,0.9C227.5,1.6,226.9,1.4,226.2,1.4z"/>
		<path class="st0" d="M235.9,9.4l-1.1-2.8h-3.5l-1.1,2.8h-1l3.5-8.8h0.9l3.4,8.8H235.9z M234.5,5.7l-1-2.7
			c-0.1-0.3-0.3-0.8-0.4-1.3c-0.1,0.4-0.2,0.8-0.4,1.3l-1,2.7H234.5z"/>
		<path class="st0" d="M241.1,9.4h-1V1.5h-2.8V0.6h6.6v0.9h-2.8L241.1,9.4L241.1,9.4L241.1,9.4z"/>
		<path class="st0" d="M245.5,9.4V0.6h1v8.8L245.5,9.4L245.5,9.4z"/>
		<path class="st0" d="M143.4,5c0,1.4-0.4,2.5-1.1,3.3c-0.7,0.8-1.7,1.2-3,1.2c-1.3,0-2.3-0.4-3-1.2c-0.7-0.8-1.1-1.9-1.1-3.3
			c0-1.4,0.4-2.5,1.1-3.3c0.7-0.8,1.7-1.2,3-1.2c1.3,0,2.2,0.4,3,1.2C143.1,2.5,143.4,3.6,143.4,5z M136.4,5c0,1.2,0.2,2.1,0.8,2.7
			c0.5,0.6,1.2,0.9,2.2,0.9c1,0,1.7-0.3,2.2-0.9c0.5-0.6,0.7-1.5,0.7-2.7c0-1.2-0.2-2.1-0.7-2.7c-0.5-0.6-1.2-0.9-2.2-0.9
			c-1,0-1.7,0.3-2.2,0.9C136.7,2.9,136.4,3.8,136.4,5z"/>
		<path class="st0" d="M256.7,5c0,1.4-0.4,2.5-1.1,3.3c-0.7,0.8-1.7,1.2-3,1.2c-1.3,0-2.3-0.4-3-1.2c-0.7-0.8-1.1-1.9-1.1-3.3
			c0-1.4,0.4-2.5,1.1-3.3c0.7-0.8,1.7-1.2,3-1.2c1.3,0,2.2,0.4,3,1.2C256.4,2.5,256.7,3.6,256.7,5z M249.8,5c0,1.2,0.2,2.1,0.8,2.7
			c0.5,0.6,1.2,0.9,2.2,0.9c1,0,1.7-0.3,2.2-0.9c0.5-0.6,0.7-1.5,0.7-2.7c0-1.2-0.2-2.1-0.7-2.7c-0.5-0.6-1.2-0.9-2.2-0.9
			c-1,0-1.7,0.3-2.2,0.9C250,2.9,249.8,3.8,249.8,5z"/>
		<path class="st0" d="M265.8,9.4h-1.2L259.8,2h0c0.1,0.9,0.1,1.7,0.1,2.4v5h-0.9V0.6h1.2l4.8,7.3h0c0-0.1,0-0.5-0.1-1
			c0-0.6,0-1,0-1.3v-5h1L265.8,9.4L265.8,9.4L265.8,9.4L265.8,9.4z"/>
	</g>
</g>
</svg>
